<?xml version="1.0" encoding="iso-8859-1"?>
<!-- Generator: Adobe Illustrator 19.0.0, SVG Export Plug-In . SVG Version: 6.00 Build 0)  -->
<svg version="1.1" id="Capa_1" xmlns="http://www.w3.org/2000/svg" xmlns:xlink="http://www.w3.org/1999/xlink" x="0px" y="0px"
	 viewBox="0 0 512 512" style="enable-background:new 0 0 512 512;" xml:space="preserve">
<path style="fill:#54ADE3;" d="M307.2,85.333h68.267c14.14,0,25.6,11.46,25.6,25.6v187.733c0,14.14-11.46,25.6-25.6,25.6H307.2
	c-14.14,0-25.6-11.46-25.6-25.6V110.933C281.6,96.794,293.06,85.333,307.2,85.333z"/>
<g>
	<path style="fill:#D3D6DB;" d="M401.067,136.533L401.067,136.533c37.7,0,68.267-30.566,68.267-68.267V0h34.133v68.267
		c0,56.55-45.85,102.4-102.4,102.4l0,0"/>
	<path style="fill:#D3D6DB;" d="M145.067,255.573v1.118l-96.973,18.031c-15.497,2.825-26.718,16.375-26.607,32.128
		c0.137,20.147,12.646,31.676,38.246,31.676l89.207-4.506c2.816,11.776,7.168,23.134,12.954,33.766l25.31,46.404
		c6.016,11.017,13.568,21.111,22.443,29.986l44.305,44.297c16.324,16.324,41.557,19.703,61.602,8.252l25.779-14.737l0.853-0.64
		c14.02,9.489,31.829,11.426,47.556,5.171l53.99-21.598v-63.855l-52.693,11.162l-61.278-61.278
		c-3.644-3.635-6.673-7.842-8.969-12.45l0,0c-3.328-6.647-5.06-13.986-5.06-21.419v-20.48l85.333-20.122l41.651-9.865
		c17.621-3.209,29.303-20.105,26.086-37.717c-3.209-17.621-20.105-29.303-37.717-26.095l-30.02,5.41L307.2,221.867L145.067,255.573z
		"/>
</g>
<path style="opacity:0.2;enable-background:new    ;" d="M315.733,253.909v-8.533l-170.667,10.24v8.533
	c23.876,11.75,50.185,17.732,76.8,17.451C255.258,282.223,288.026,272.555,315.733,253.909z"/>
<path style="fill:#54ADE3;" d="M447.744,472.841c2.705,8.098,10.283,13.559,18.816,13.559l0,0c10.957,0,19.84-8.883,19.84-19.84l0,0
	V409.6c0-4.71-3.823-8.533-8.533-8.533h-34.133V460.8L447.744,472.841z"/>
<path style="fill:#D3D6DB;" d="M221.867,17.067c-79.113,0-145.067,47.881-145.067,128c-0.913,47.044,25.788,90.266,68.267,110.507
	c23.876,11.767,50.185,17.758,76.8,17.493c33.391,0.623,66.159-9.045,93.867-27.691c10.522-7.373,19.823-16.35,27.563-26.607
	c15.761-21.308,24.064-47.206,23.637-73.702C366.933,64.947,300.979,17.067,221.867,17.067z"/>
<path style="fill:#54ADE3;" d="M102.4,145.067c0,51.84,42.027,93.867,93.867,93.867s93.867-42.027,93.867-93.867
	c0,0-59.733-34.133-102.4-34.133S102.4,145.067,102.4,145.067z"/>
<path style="fill:#FFFFFF;" d="M196.267,51.2c-51.84,0-93.867,42.027-93.867,93.867c0,0,42.667-34.133,85.333-34.133
	s102.4,34.133,102.4,34.133C290.133,93.227,248.107,51.2,196.267,51.2z"/>
<g>
	<path style="fill:#54ADE3;" d="M204.8,307.2H256c9.429,0,17.067,7.637,17.067,17.067v25.6c0,9.429-7.637,17.067-17.067,17.067
		h-51.2c-9.429,0-17.067-7.637-17.067-17.067v-25.6C187.733,314.837,195.371,307.2,204.8,307.2z"/>
	<path style="fill:#54ADE3;" d="M324.267,128L324.267,128c4.71,0,8.533,3.823,8.533,8.533v25.6c0,4.71-3.823,8.533-8.533,8.533l0,0
		c-4.71,0-8.533-3.823-8.533-8.533v-25.6C315.733,131.823,319.556,128,324.267,128z"/>
</g>
<g>
	<rect x="17.067" style="fill:#FF9A2E;" width="17.067" height="17.067"/>
	<rect y="17.067" style="fill:#FF9A2E;" width="17.067" height="17.067"/>
	<rect x="34.133" y="17.067" style="fill:#FF9A2E;" width="17.067" height="17.067"/>
	<rect x="17.067" y="34.133" style="fill:#FF9A2E;" width="17.067" height="17.067"/>
	<rect y="162.133" style="fill:#FF9A2E;" width="17.067" height="17.067"/>
	<rect x="477.867" y="298.667" style="fill:#FF9A2E;" width="17.067" height="17.067"/>
	<rect x="460.8" y="315.733" style="fill:#FF9A2E;" width="17.067" height="17.067"/>
	<rect x="494.933" y="315.733" style="fill:#FF9A2E;" width="17.067" height="17.067"/>
	<rect x="477.867" y="332.8" style="fill:#FF9A2E;" width="17.067" height="17.067"/>
	<rect x="102.4" y="401.067" style="fill:#FF9A2E;" width="17.067" height="17.067"/>
	<rect x="85.333" y="418.133" style="fill:#FF9A2E;" width="17.067" height="17.067"/>
	<rect x="119.467" y="418.133" style="fill:#FF9A2E;" width="17.067" height="17.067"/>
	<rect x="102.4" y="435.2" style="fill:#FF9A2E;" width="17.067" height="17.067"/>
	<rect x="34.133" y="469.333" style="fill:#FF9A2E;" width="17.067" height="17.067"/>
	<rect x="162.133" y="494.933" style="fill:#FF9A2E;" width="17.067" height="17.067"/>
	<rect y="358.4" style="fill:#FF9A2E;" width="17.067" height="17.067"/>
</g>
<g>
</g>
<g>
</g>
<g>
</g>
<g>
</g>
<g>
</g>
<g>
</g>
<g>
</g>
<g>
</g>
<g>
</g>
<g>
</g>
<g>
</g>
<g>
</g>
<g>
</g>
<g>
</g>
<g>
</g>
</svg>
